# xmcd
#
# Track frame offsets:
# 150
# 21857
# 44288
# 69053
# 91331
# 114828
# 135542
# 157094
# 182155
# 202186
# 220262
# 243055
#
# Disc length: 3491 seconds
#
# Revision: 0
# Processed by: cddbd v1.5.1PL0 Copyright (c) Steve Scherf et al.
# Submitted via: Audion 3.0.2 (http://www.panic.com/audion/)
#
DISCID=9e0da10c
DTITLE=Cold Play - X and Y
DYEAR=1900
DGENRE=
TTITLE0=Square one
TTITLE1=what if
TTITLE2=white shadows
TTITLE3=fix you
TTITLE4=talk
TTITLE5=x and y
TTITLE6=speed of sound
TTITLE7=a message
TTITLE8=low
TTITLE9=the hardest part
TTITLE10=swallowed in the sea
TTITLE11=twisted logic
EXTD=
EXTT0=
EXTT1=
EXTT2=
EXTT3=
EXTT4=
EXTT5=
EXTT6=
EXTT7=
EXTT8=
EXTT9=
EXTT10=
EXTT11=
PLAYORDER=
